M48
; DRILL file {KiCad 8.0.1} date 2024-09-05T11:52:49-0400
; FORMAT={-:-/ absolute / inch / decimal}
; #@! TF.CreationDate,2024-09-05T11:52:49-04:00
; #@! TF.GenerationSoftware,Kicad,Pcbnew,8.0.1
; #@! TF.FileFunction,Plated,1,2,PTH
FMAT,2
INCH
; #@! TA.AperFunction,Plated,PTH,ViaDrill
T1C0.0118
; #@! TA.AperFunction,Plated,PTH,ComponentDrill
T2C0.0374
; #@! TA.AperFunction,Plated,PTH,ComponentDrill
T3C0.1693
%
G90
G05
T1
X3.92Y-4.32
X3.96Y-4.32
X4.24Y-3.82
X4.24Y-4.54
X4.2636Y-4.1
X4.34Y-4.58
X4.44Y-4.54
X4.52Y-3.68
X4.52Y-3.9
X4.54Y-4.58
X4.56Y-4.1
X4.62Y-4.52
X4.64Y-3.34
X5.64Y-3.16
X5.64Y-3.36
X5.76Y-3.4
X5.86Y-3.4
X5.92Y-4.74
X5.96Y-3.12
X5.98Y-4.56
T2
X4.9206Y-4.6673
X5.019Y-3.2273
X5.019Y-4.6673
X5.1175Y-3.2273
X5.1175Y-4.6673
X5.2159Y-3.2273
X5.2159Y-4.6673
X5.3143Y-3.2273
X5.3143Y-4.6673
X5.4127Y-3.2273
X5.4127Y-4.6673
X5.5112Y-3.2273
X5.5112Y-4.6673
T3
X4.8107Y-3.6247
X4.8107Y-4.2547
X5.1257Y-3.6247
X5.1257Y-4.2547
X5.4406Y-3.6247
X5.4406Y-4.2547
M30
